<?xml version="1.0" encoding="UTF-8" standalone="no"?><svg xmlns="http://www.w3.org/2000/svg" xmlns:xlink="http://www.w3.org/1999/xlink" fill="#000000" height="615.4" preserveAspectRatio="xMidYMid meet" version="1" viewBox="0.0 -0.0 688.0 615.4" width="688" zoomAndPan="magnify"><defs><clipPath id="a"><path d="M 636 345 L 688.039062 345 L 688.039062 397 L 636 397 Z M 636 345"/></clipPath><clipPath id="b"><path d="M 366 564 L 418 564 L 418 615.378906 L 366 615.378906 Z M 366 564"/></clipPath></defs><g><g id="change1_1"><path d="M 193.367188 191.414062 C 193.367188 176.269531 181.089844 163.992188 165.941406 163.992188 C 150.800781 163.992188 138.519531 176.269531 138.519531 191.414062 C 138.519531 206.558594 150.800781 218.835938 165.941406 218.835938 C 181.089844 218.835938 193.367188 206.558594 193.367188 191.414062" fill="#ef4023"/></g><g id="change1_2"><path d="M 184.089844 69.625 C 184.089844 61.832031 177.769531 55.511719 169.976562 55.511719 C 162.183594 55.511719 155.863281 61.832031 155.863281 69.625 C 155.863281 77.421875 162.183594 83.738281 169.976562 83.738281 C 177.769531 83.738281 184.089844 77.421875 184.089844 69.625" fill="#ef4023"/></g><g id="change1_3"><path d="M 84.484375 120.4375 C 84.484375 114.203125 79.425781 109.148438 73.191406 109.148438 C 66.957031 109.148438 61.902344 114.203125 61.902344 120.4375 C 61.902344 126.675781 66.957031 131.726562 73.191406 131.726562 C 79.425781 131.726562 84.484375 126.675781 84.484375 120.4375" fill="#ef4023"/></g><g id="change1_4"><path d="M 61.902344 313.199219 C 61.902344 299.390625 50.707031 288.195312 36.898438 288.195312 C 23.089844 288.195312 11.894531 299.390625 11.894531 313.199219 C 11.894531 327.011719 23.089844 338.203125 36.898438 338.203125 C 50.707031 338.203125 61.902344 327.011719 61.902344 313.199219" fill="#ef4023"/></g><g id="change1_5"><path d="M 180.460938 333.363281 C 180.460938 325.347656 173.960938 318.84375 165.941406 318.84375 C 157.925781 318.84375 151.425781 325.347656 151.425781 333.363281 C 151.425781 341.382812 157.925781 347.878906 165.941406 347.878906 C 173.960938 347.878906 180.460938 341.382812 180.460938 333.363281" fill="#ef4023"/></g><g id="change2_1"><path d="M 332.894531 264.003906 C 332.894531 250.640625 322.0625 239.804688 308.699219 239.804688 C 295.335938 239.804688 284.503906 250.640625 284.503906 264.003906 C 284.503906 277.363281 295.335938 288.195312 308.699219 288.195312 C 322.0625 288.195312 332.894531 277.363281 332.894531 264.003906" fill="#fcbf22"/></g><g id="change2_2"><path d="M 336.925781 181.734375 C 336.925781 173.71875 330.429688 167.21875 322.410156 167.21875 C 314.394531 167.21875 307.890625 173.71875 307.890625 181.734375 C 307.890625 189.753906 314.394531 196.253906 322.410156 196.253906 C 330.429688 196.253906 336.925781 189.753906 336.925781 181.734375" fill="#fcbf22"/></g><g id="change2_3"><path d="M 244.980469 338.203125 C 244.980469 327.511719 236.316406 318.84375 225.625 318.84375 C 214.9375 318.84375 206.269531 327.511719 206.269531 338.203125 C 206.269531 348.894531 214.9375 357.558594 225.625 357.558594 C 236.316406 357.558594 244.980469 348.894531 244.980469 338.203125" fill="#fcbf22"/></g><g id="change2_4"><path d="M 384.109375 318.84375 C 384.109375 311.941406 378.511719 306.34375 371.609375 306.34375 C 364.703125 306.34375 359.109375 311.941406 359.109375 318.84375 C 359.109375 325.75 364.703125 331.347656 371.609375 331.347656 C 378.511719 331.347656 384.109375 325.75 384.109375 318.84375" fill="#fcbf22"/></g><g id="change2_5"><path d="M 250.222656 439.019531 C 250.222656 423.207031 237.40625 410.386719 221.59375 410.386719 C 205.78125 410.386719 192.960938 423.207031 192.960938 439.019531 C 192.960938 454.832031 205.78125 467.652344 221.59375 467.652344 C 237.40625 467.652344 250.222656 454.832031 250.222656 439.019531" fill="#fcbf22"/></g><g id="change3_1"><path d="M 301.980469 120.4375 C 301.980469 107.371094 291.386719 96.78125 278.320312 96.78125 C 265.253906 96.78125 254.660156 107.371094 254.660156 120.4375 C 254.660156 133.503906 265.253906 144.097656 278.320312 144.097656 C 291.386719 144.097656 301.980469 133.503906 301.980469 120.4375" fill="#00e7d4"/></g><g id="change3_2"><path d="M 326.710938 15.589844 C 326.710938 6.976562 319.730469 -0.00390625 311.117188 -0.00390625 C 302.507812 -0.00390625 295.527344 6.976562 295.527344 15.589844 C 295.527344 24.199219 302.507812 31.183594 311.117188 31.183594 C 319.730469 31.183594 326.710938 24.199219 326.710938 15.589844" fill="#00e7d4"/></g><g id="change3_3"><path d="M 422.6875 100.007812 C 422.6875 85.601562 411.015625 73.929688 396.609375 73.929688 C 382.210938 73.929688 370.535156 85.601562 370.535156 100.007812 C 370.535156 114.40625 382.210938 126.085938 396.609375 126.085938 C 411.015625 126.085938 422.6875 114.40625 422.6875 100.007812" fill="#00e7d4"/></g><g id="change3_4"><path d="M 476.726562 43.011719 C 476.726562 34.101562 469.503906 26.878906 460.597656 26.878906 C 451.6875 26.878906 444.464844 34.101562 444.464844 43.011719 C 444.464844 51.921875 451.6875 59.140625 460.597656 59.140625 C 469.503906 59.140625 476.726562 51.921875 476.726562 43.011719" fill="#00e7d4"/></g><g id="change3_5"><path d="M 471.082031 222.867188 C 471.082031 208.167969 459.164062 196.253906 444.464844 196.253906 C 429.765625 196.253906 417.851562 208.167969 417.851562 222.867188 C 417.851562 237.566406 429.765625 249.484375 444.464844 249.484375 C 459.164062 249.484375 471.082031 237.566406 471.082031 222.867188" fill="#00e7d4"/></g><g id="change4_1"><path d="M 545.953125 352.722656 C 545.953125 340.917969 536.386719 331.347656 524.578125 331.347656 C 512.777344 331.347656 503.207031 340.917969 503.207031 352.722656 C 503.207031 364.523438 512.777344 374.09375 524.578125 374.09375 C 536.386719 374.09375 545.953125 364.523438 545.953125 352.722656" fill="#0a5d94"/></g><g id="change4_2"><path d="M 474.574219 390.359375 C 474.574219 382.933594 468.558594 376.914062 461.132812 376.914062 C 453.710938 376.914062 447.691406 382.933594 447.691406 390.359375 C 447.691406 397.78125 453.710938 403.800781 461.132812 403.800781 C 468.558594 403.800781 474.574219 397.78125 474.574219 390.359375" fill="#0a5d94"/></g><g id="change2_6"><path d="M 590.445312 246.792969 C 590.445312 234.765625 580.699219 225.019531 568.671875 225.019531 C 556.644531 225.019531 546.894531 234.765625 546.894531 246.792969 C 546.894531 258.820312 556.644531 268.570312 568.671875 268.570312 C 580.699219 268.570312 590.445312 258.820312 590.445312 246.792969" fill="#fcbf22"/></g><g id="change4_3"><path d="M 678.628906 272.066406 C 678.628906 264.492188 672.492188 258.355469 664.917969 258.355469 C 657.34375 258.355469 651.207031 264.492188 651.207031 272.066406 C 651.207031 279.640625 657.34375 285.777344 664.917969 285.777344 C 672.492188 285.777344 678.628906 279.640625 678.628906 272.066406" fill="#0a5d94"/></g><g id="change4_4"><path d="M 605.636719 451.117188 C 605.636719 442.726562 598.839844 435.925781 590.445312 435.925781 C 582.058594 435.925781 575.257812 442.726562 575.257812 451.117188 C 575.257812 459.507812 582.058594 466.308594 590.445312 466.308594 C 598.839844 466.308594 605.636719 459.507812 605.636719 451.117188" fill="#0a5d94"/></g><g clip-path="url(#a)" id="change4_10"><path d="M 688.039062 371 C 688.039062 356.746094 676.484375 345.191406 662.230469 345.191406 C 647.976562 345.191406 636.421875 356.746094 636.421875 371 C 636.421875 385.253906 647.976562 396.808594 662.230469 396.808594 C 676.484375 396.808594 688.039062 385.253906 688.039062 371" fill="#0a5d94"/></g><g id="change2_7"><path d="M 586.488281 113.984375 C 586.488281 104.144531 578.511719 96.171875 568.671875 96.171875 C 558.832031 96.171875 550.859375 104.144531 550.859375 113.984375 C 550.859375 123.828125 558.832031 131.800781 568.671875 131.800781 C 578.511719 131.800781 586.488281 123.828125 586.488281 113.984375" fill="#fcbf22"/></g><g id="change2_8"><path d="M 669.085938 172.863281 C 669.085938 162.988281 661.078125 154.984375 651.207031 154.984375 C 641.332031 154.984375 633.328125 162.988281 633.328125 172.863281 C 633.328125 182.734375 641.332031 190.742188 651.207031 190.742188 C 661.078125 190.742188 669.085938 182.734375 669.085938 172.863281" fill="#fcbf22"/></g><g id="change3_6"><path d="M 342.84375 424.230469 C 342.84375 412.945312 333.695312 403.800781 322.410156 403.800781 C 311.125 403.800781 301.980469 412.945312 301.980469 424.230469 C 301.980469 435.515625 311.125 444.664062 322.410156 444.664062 C 333.695312 444.664062 342.84375 435.515625 342.84375 424.230469" fill="#00e7d4"/></g><g id="change3_7"><path d="M 433.445312 460.257812 C 433.445312 451.648438 426.464844 444.664062 417.851562 444.664062 C 409.238281 444.664062 402.257812 451.648438 402.257812 460.257812 C 402.257812 468.871094 409.238281 475.851562 417.851562 475.851562 C 426.464844 475.851562 433.445312 468.871094 433.445312 460.257812" fill="#00e7d4"/></g><g clip-path="url(#b)" id="change3_16"><path d="M 417.851562 589.839844 C 417.851562 575.734375 406.414062 564.300781 392.308594 564.300781 C 378.203125 564.300781 366.769531 575.734375 366.769531 589.839844 C 366.769531 603.945312 378.203125 615.378906 392.308594 615.378906 C 406.414062 615.378906 417.851562 603.945312 417.851562 589.839844" fill="#00e7d4"/></g><g id="change3_8"><path d="M 474.574219 526.390625 C 474.574219 520.15625 469.523438 515.101562 463.285156 515.101562 C 457.050781 515.101562 451.992188 520.15625 451.992188 526.390625 C 451.992188 532.628906 457.050781 537.683594 463.285156 537.683594 C 469.523438 537.683594 474.574219 532.628906 474.574219 526.390625" fill="#00e7d4"/></g><g id="change3_9"><path d="M 419.496094 468.234375 L 396.324219 585.792969 L 459.15625 525.960938 Z M 393.414062 600.578125 L 319.5 425.460938 L 325.320312 423.003906 L 391.203125 579.101562 L 416.203125 452.28125 L 467.414062 526.824219 L 395.023438 595.757812 L 394.476562 595.179688 L 393.414062 600.578125" fill="#00e7d4"/></g><g id="change3_10"><path d="M 441.523438 224.015625 L 392.871094 99.105469 L 458.496094 40.652344 L 462.699219 45.367188 L 400.351562 100.90625 L 447.410156 221.722656 L 441.523438 224.015625" fill="#00e7d4"/></g><g id="change3_11"><path d="M 278.859375 123.550781 L 277.78125 117.324219 L 390.023438 97.9375 L 308.898438 17.835938 L 313.339844 13.34375 L 403.203125 102.074219 L 278.859375 123.550781" fill="#00e7d4"/></g><g id="change2_9"><path d="M 224.75 439.144531 L 218.4375 438.890625 L 222.527344 336.738281 L 305.765625 262.386719 L 319.292969 181.214844 L 325.527344 182.253906 L 311.632812 265.617188 L 228.730469 339.664062 L 224.75 439.144531" fill="#fcbf22"/></g><g id="change2_10"><path d="M 369.53125 321.226562 L 306.625 266.382812 L 310.773438 261.621094 L 373.683594 316.464844 L 369.53125 321.226562" fill="#fcbf22"/></g><g id="change2_11"><path d="M 571.832031 120.121094 L 571.832031 239.726562 L 646.160156 173.144531 Z M 565.511719 253.867188 L 565.511719 107.851562 L 656.253906 172.582031 L 565.511719 253.867188" fill="#fcbf22"/></g><g id="change1_6"><path d="M 75.347656 126.066406 L 41.800781 304.226562 L 161.074219 191.664062 Z M 31.992188 322.171875 L 71.039062 114.8125 L 170.8125 191.160156 L 31.992188 322.171875" fill="#ef4023"/></g><g id="change1_7"><path d="M 169.101562 333.363281 L 162.785156 333.363281 L 162.785156 191.410156 L 166.816406 69.519531 L 173.132812 69.730469 L 169.101562 191.515625 L 169.101562 333.363281" fill="#ef4023"/></g><g id="change4_5"><path d="M 529.089844 353.773438 L 590.8125 445.980469 L 659.105469 369.757812 L 661.609375 277.613281 Z M 590.085938 456.257812 L 520.070312 351.667969 L 668.226562 266.519531 L 665.355469 372.246094 L 664.582031 373.109375 L 590.085938 456.257812" fill="#0a5d94"/></g><g id="change4_6"><path d="M 589.105469 453.976562 L 459.789062 393.21875 L 462.472656 387.496094 L 591.789062 448.257812 L 589.105469 453.976562" fill="#0a5d94"/></g><g id="change4_7"><path d="M 234.699219 33.734375 C 234.699219 29.390625 231.179688 25.871094 226.835938 25.871094 C 222.492188 25.871094 218.972656 29.390625 218.972656 33.734375 C 218.972656 38.078125 222.492188 41.601562 226.835938 41.601562 C 231.179688 41.601562 234.699219 38.078125 234.699219 33.734375" fill="#0a5d94"/></g><g id="change4_8"><path d="M 127.230469 366.433594 C 127.230469 356.1875 118.925781 347.878906 108.679688 347.878906 C 98.433594 347.878906 90.128906 356.1875 90.128906 366.433594 C 90.128906 376.675781 98.433594 384.980469 108.679688 384.980469 C 118.925781 384.980469 127.230469 376.675781 127.230469 366.433594" fill="#0a5d94"/></g><g id="change4_9"><path d="M 503.207031 120.4375 C 503.207031 113.683594 497.730469 108.207031 490.976562 108.207031 C 484.21875 108.207031 478.742188 113.683594 478.742188 120.4375 C 478.742188 127.195312 484.21875 132.671875 490.976562 132.671875 C 497.730469 132.671875 503.207031 127.195312 503.207031 120.4375" fill="#0a5d94"/></g><g id="change1_8"><path d="M 33.46875 201.492188 C 33.46875 192.253906 25.976562 184.761719 16.734375 184.761719 C 7.492188 184.761719 0 192.253906 0 201.492188 C 0 210.738281 7.492188 218.230469 16.734375 218.230469 C 25.976562 218.230469 33.46875 210.738281 33.46875 201.492188" fill="#ef4023"/></g><g id="change1_9"><path d="M 253.25 258.355469 C 253.25 248.109375 244.945312 239.804688 234.699219 239.804688 C 224.453125 239.804688 216.148438 248.109375 216.148438 258.355469 C 216.148438 268.601562 224.453125 276.90625 234.699219 276.90625 C 244.945312 276.90625 253.25 268.601562 253.25 258.355469" fill="#ef4023"/></g><g id="change1_10"><path d="M 503.878906 473.160156 C 503.878906 466.035156 498.105469 460.257812 490.976562 460.257812 C 483.851562 460.257812 478.070312 466.035156 478.070312 473.160156 C 478.070312 480.289062 483.851562 486.066406 490.976562 486.066406 C 498.105469 486.066406 503.878906 480.289062 503.878906 473.160156" fill="#ef4023"/></g><g id="change1_11"><path d="M 559.058594 475.851562 C 559.058594 471.320312 555.386719 467.652344 550.859375 467.652344 C 546.328125 467.652344 542.65625 471.320312 542.65625 475.851562 C 542.65625 480.378906 546.328125 484.050781 550.859375 484.050781 C 555.386719 484.050781 559.058594 480.378906 559.058594 475.851562" fill="#ef4023"/></g><g id="change1_12"><path d="M 476.726562 303.789062 C 476.726562 295.179688 469.746094 288.195312 461.132812 288.195312 C 452.519531 288.195312 445.539062 295.179688 445.539062 303.789062 C 445.539062 312.402344 452.519531 319.382812 461.132812 319.382812 C 469.746094 319.382812 476.726562 312.402344 476.726562 303.789062" fill="#ef4023"/></g><g id="change1_13"><path d="M 327.25 357.558594 C 327.25 352.214844 322.914062 347.878906 317.570312 347.878906 C 312.226562 347.878906 307.890625 352.214844 307.890625 357.558594 C 307.890625 362.90625 312.226562 367.238281 317.570312 367.238281 C 322.914062 367.238281 327.25 362.90625 327.25 357.558594" fill="#ef4023"/></g><g id="change2_12"><path d="M 384.109375 231.742188 C 384.109375 226.617188 379.957031 222.464844 374.835938 222.464844 C 369.710938 222.464844 365.5625 226.617188 365.5625 231.742188 C 365.5625 236.859375 369.710938 241.015625 374.835938 241.015625 C 379.957031 241.015625 384.109375 236.859375 384.109375 231.742188" fill="#fcbf22"/></g><g id="change2_13"><path d="M 408.710938 390.359375 C 408.710938 379.667969 400.042969 371 389.351562 371 C 378.660156 371 369.996094 379.667969 369.996094 390.359375 C 369.996094 401.046875 378.660156 409.714844 389.351562 409.714844 C 400.042969 409.714844 408.710938 401.046875 408.710938 390.359375" fill="#fcbf22"/></g><g id="change2_14"><path d="M 290.015625 479.34375 C 290.015625 472.886719 284.78125 467.652344 278.320312 467.652344 C 271.859375 467.652344 266.625 472.886719 266.625 479.34375 C 266.625 485.804688 271.859375 491.039062 278.320312 491.039062 C 284.78125 491.039062 290.015625 485.804688 290.015625 479.34375" fill="#fcbf22"/></g><g id="change2_15"><path d="M 678.628906 218.835938 C 678.628906 213.566406 674.355469 209.289062 669.085938 209.289062 C 663.816406 209.289062 659.539062 213.566406 659.539062 218.835938 C 659.539062 224.105469 663.816406 228.378906 669.085938 228.378906 C 674.355469 228.378906 678.628906 224.105469 678.628906 218.835938" fill="#fcbf22"/></g><g id="change3_12"><path d="M 521.757812 209.289062 C 521.757812 199.417969 513.753906 191.414062 503.878906 191.414062 C 494.007812 191.414062 486.003906 199.417969 486.003906 209.289062 C 486.003906 219.164062 494.007812 227.167969 503.878906 227.167969 C 513.753906 227.167969 521.757812 219.164062 521.757812 209.289062" fill="#00e7d4"/></g><g id="change3_13"><path d="M 523.238281 68.015625 C 523.238281 63.113281 519.265625 59.140625 514.363281 59.140625 C 509.464844 59.140625 505.496094 63.113281 505.496094 68.015625 C 505.496094 72.910156 509.464844 76.886719 514.363281 76.886719 C 519.265625 76.886719 523.238281 72.910156 523.238281 68.015625" fill="#00e7d4"/></g><g id="change3_14"><path d="M 342.84375 533.382812 C 342.84375 527.886719 338.390625 523.4375 332.894531 523.4375 C 327.402344 523.4375 322.949219 527.886719 322.949219 533.382812 C 322.949219 538.878906 327.402344 543.332031 332.894531 543.332031 C 338.390625 543.332031 342.84375 538.878906 342.84375 533.382812" fill="#00e7d4"/></g><g id="change3_15"><path d="M 122.792969 83.738281 C 122.792969 75.945312 116.476562 69.625 108.679688 69.625 C 100.882812 69.625 94.566406 75.945312 94.566406 83.738281 C 94.566406 91.535156 100.882812 97.855469 108.679688 97.855469 C 116.476562 97.855469 122.792969 91.535156 122.792969 83.738281" fill="#00e7d4"/></g></g></svg>