<?xml version="1.0" encoding="UTF-8" standalone="no"?><svg xmlns="http://www.w3.org/2000/svg" xmlns:xlink="http://www.w3.org/1999/xlink" clip-rule="evenodd" fill="#ffffff" fill-rule="evenodd" height="16216.7" image-rendering="optimizeQuality" preserveAspectRatio="xMidYMid meet" shape-rendering="geometricPrecision" text-rendering="geometricPrecision" version="1" viewBox="3856.9 9751.0 20861.3 16216.7" width="20861.3" zoomAndPan="magnify"><g><g id="change1_1"><path d="M6133.17 12827.37l8235.89 0 0 672.4 -7252.65 0c-268.88,0 -488.85,219.97 -488.85,488.85l0 7660.25c0,268.88 219.97,488.84 488.85,488.84l12631.05 0c268.88,0 488.85,-219.96 488.85,-488.84l0 -2444.78 1059.37 0 0 3040.99c0,191.02 -96.04,360.6 -242.21,463.04l242.21 0c0,0 597.56,706.22 1792.76,2118.73 -163.12,645.99 -489.03,1026.23 -977.88,1140.87 0,0 -5704.26,0 -17112.83,0 -563.13,-14.97 -943.44,-395.22 -1140.86,-1140.87 0,0 597.62,-706.22 1792.82,-2118.73l160.71 0c-146.17,-102.44 -242.21,-272.02 -242.21,-463.04l0 -8852.79c0,-310.71 254.22,-564.92 564.98,-564.92zm5954.16 12325.4l2770.64 0c134.47,0 244.48,110.02 244.48,244.48l0 0c0,134.47 -110.01,244.49 -244.48,244.49l-2770.64 0c-134.46,0 -244.48,-110.02 -244.48,-244.49l0 0c0,-134.46 110.02,-244.48 244.48,-244.48zm-1548.27 -244.42c325.92,-488.97 488.91,-733.45 488.91,-733.45 3259.6,0 4889.37,0 4889.37,0 325.98,488.96 488.96,733.45 488.96,733.45 -3911.49,0 -5867.24,0 -5867.24,0z"/></g><g id="change2_1"><path d="M12168.83 17981.73H13798.6V19611.5H12168.83z" fill="#8a2be1"/></g><g id="change3_1"><path d="M14694.98 17900.24H16142.05V19347.31H14694.98z" fill="#b537f2"/></g><g id="change4_1"><path d="M19823.41 15373.47H22920.58V18470.64H19823.41z" fill="#ffffff"/></g><g id="change5_1"><path d="M17394.03 17339.69H19176.93V19122.59H17394.03z" fill="#3cb9fc"/></g><g id="change2_2"><path d="M15764.2 15383.95H17547.100000000002V17166.850000000002H15764.2z" fill="#8a2be1"/></g><g id="change4_2"><path d="M15107.38 13097.29H16890.28V14880.19H15107.38z" fill="#ffffff"/></g><g id="change5_2"><path d="M13238.05 16117.34H14685.119999999999V17564.41H13238.05z" fill="#3cb9fc"/></g><g id="change3_2"><path d="M17872.78 12358.66H20399.239999999998V14885.119999999999H17872.78z" fill="#b537f2"/></g><g id="change2_3"><path d="M18366.98 10000.68H20149.88V11783.58H18366.98z" fill="#8a2be1"/></g><g id="change5_3"><path d="M20969.39 9751.02H24718.14V13499.77H20969.39z" fill="#3cb9fc"/></g></g></svg>