<?xml version="1.0" encoding="UTF-8"?><svg xmlns="http://www.w3.org/2000/svg" xmlns:xlink="http://www.w3.org/1999/xlink" height="190.1" preserveAspectRatio="xMidYMid meet" version="1.0" viewBox="75.7 117.5 273.7 190.1" width="273.7" zoomAndPan="magnify"><g><g id="change1_1"><path d="M 258.421875 196.9375 C 257.960938 196.101562 257.460938 195.28125 256.914062 194.488281 C 253.660156 189.773438 248.925781 186.6875 244.164062 183.640625 C 235.859375 178.324219 221.675781 178.988281 212.351562 179.058594 C 201.160156 179.144531 187.433594 178.464844 177.777344 185 C 167.039062 192.265625 164.207031 204.332031 158.5625 215.152344 C 152.273438 227.210938 143.183594 237.597656 131.742188 244.992188 C 123.34375 250.421875 114.140625 253.980469 104.304688 255.828125 L 104.304688 276.664062 C 104.304688 276.664062 168.210938 261.5 178.460938 223.710938 C 178.089844 225.078125 179.972656 228.570312 180.433594 229.957031 C 181.171875 232.1875 181.9375 234.410156 182.636719 236.652344 C 183.996094 241.019531 185.199219 245.472656 185.667969 250.03125 C 186.269531 255.90625 185.558594 261.789062 184.640625 267.589844 C 184.1875 270.4375 183.667969 273.277344 183.230469 276.125 C 183.046875 277.3125 181.640625 282.539062 182.210938 283.230469 C 193.574219 296.972656 229.582031 297.09375 240.960938 283 C 241.617188 282.183594 240.203125 277.019531 240.039062 275.796875 C 238.9375 267.660156 238.066406 259.40625 238.804688 251.195312 C 239.519531 243.222656 242.0625 235.574219 243.917969 227.824219 C 244.425781 225.714844 244.945312 223.605469 245.460938 221.5 C 255.960938 264.050781 320.894531 276.664062 320.894531 276.664062 L 320.894531 255.828125 C 294.707031 250.90625 274.828125 233.355469 263.898438 209.535156 C 261.996094 205.386719 260.625 200.941406 258.421875 196.9375" fill="#f4f4f4"/></g><path d="M 2584.21875 2282.625 C 2579.609375 2290.984375 2574.609375 2299.1875 2569.140625 2307.117188 C 2536.601562 2354.265625 2489.257812 2385.125 2441.640625 2415.59375 C 2358.59375 2468.757812 2216.757812 2462.117188 2123.515625 2461.414062 C 2011.601562 2460.554688 1874.335938 2467.351562 1777.773438 2402 C 1670.390625 2329.34375 1642.070312 2208.679688 1585.625 2100.476562 C 1522.734375 1979.890625 1431.835938 1876.023438 1317.421875 1802.078125 C 1233.4375 1747.78125 1141.40625 1712.195312 1043.046875 1693.71875 L 1043.046875 1485.359375 C 1043.046875 1485.359375 1682.109375 1637 1784.609375 2014.890625 C 1780.898438 2001.21875 1799.726562 1966.296875 1804.335938 1952.429688 C 1811.71875 1930.125 1819.375 1907.898438 1826.367188 1885.476562 C 1839.960938 1841.804688 1851.992188 1797.273438 1856.679688 1751.6875 C 1862.695312 1692.9375 1855.585938 1634.109375 1846.40625 1576.101562 C 1841.875 1547.625 1836.679688 1519.226562 1832.304688 1490.75 C 1830.46875 1478.875 1816.40625 1426.609375 1822.109375 1419.695312 C 1935.742188 1282.273438 2295.820312 1281.0625 2409.609375 1422 C 2416.171875 1430.164062 2402.03125 1481.804688 2400.390625 1494.03125 C 2389.375 1575.398438 2380.664062 1657.9375 2388.046875 1740.046875 C 2395.195312 1819.773438 2420.625 1896.257812 2439.179688 1973.757812 C 2444.257812 1994.851562 2449.453125 2015.945312 2454.609375 2037 C 2559.609375 1611.492188 3208.945312 1485.359375 3208.945312 1485.359375 L 3208.945312 1693.71875 C 2947.070312 1742.9375 2748.28125 1918.445312 2638.984375 2156.648438 C 2619.960938 2198.132812 2606.25 2242.585938 2584.21875 2282.625 Z M 2584.21875 2282.625" fill="none" stroke="#2e2939" stroke-linecap="round" stroke-linejoin="round" stroke-miterlimit="10" stroke-width="40" transform="matrix(.1 0 0 -.1 0 425.2)"/><g id="change1_2"><path d="M 229.789062 182.300781 C 229.789062 194.007812 222 200 212.382812 200 C 202.769531 200 194.976562 194.007812 194.976562 182.300781 C 194.976562 181.996094 194.984375 181.699219 194.992188 181.394531 C 200.050781 178.230469 224.660156 178.296875 229.777344 181.570312 C 229.78125 181.816406 229.789062 182.054688 229.789062 182.300781" fill="#f4f4f4"/></g><path d="M 2297.890625 2428.992188 C 2297.890625 2311.921875 2220 2252 2123.828125 2252 C 2027.695312 2252 1949.765625 2311.921875 1949.765625 2428.992188 C 1949.765625 2432.039062 1949.84375 2435.007812 1949.921875 2438.054688 C 2000.507812 2469.695312 2246.601562 2469.03125 2297.773438 2436.296875 C 2297.8125 2433.835938 2297.890625 2431.453125 2297.890625 2428.992188 Z M 2297.890625 2428.992188" fill="none" stroke="#2e2939" stroke-linecap="round" stroke-linejoin="round" stroke-miterlimit="10" stroke-width="40" transform="matrix(.1 0 0 -.1 0 425.2)"/><g id="change1_3"><path d="M 104.304688 268.828125 C 104.304688 268.828125 78.449219 273.8125 77.757812 258.496094 L 104.304688 258.496094 L 104.304688 268.828125" fill="#f4f4f4"/></g><path d="M 1043.046875 1563.71875 C 1043.046875 1563.71875 784.492188 1513.875 777.578125 1667.039062 L 1043.046875 1667.039062 Z M 1043.046875 1563.71875" fill="none" stroke="#2e2939" stroke-linecap="round" stroke-linejoin="round" stroke-miterlimit="10" stroke-width="40" transform="matrix(.1 0 0 -.1 0 425.2)"/><g id="change1_4"><path d="M 320.894531 268.828125 C 320.894531 268.828125 346.753906 273.8125 347.441406 258.496094 L 320.894531 258.496094 L 320.894531 268.828125" fill="#f4f4f4"/></g><path d="M 3208.945312 1563.71875 C 3208.945312 1563.71875 3467.539062 1513.875 3474.414062 1667.039062 L 3208.945312 1667.039062 Z M 3208.945312 1563.71875" fill="none" stroke="#2e2939" stroke-linecap="round" stroke-linejoin="round" stroke-miterlimit="10" stroke-width="40" transform="matrix(.1 0 0 -.1 0 425.2)"/><g id="change1_5"><path d="M 284.785156 305.117188 C 284.675781 305.257812 284.765625 305.46875 284.765625 305.652344 L 188.597656 305.652344 C 188.597656 305.652344 228.625 282.9375 262.011719 267.390625 C 284.074219 264.050781 294.417969 292.949219 284.785156 305.117188" fill="#f4f4f4"/></g><path d="M 2847.851562 1200.828125 C 2846.757812 1199.421875 2847.65625 1197.3125 2847.65625 1195.476562 L 1885.976562 1195.476562 C 1885.976562 1195.476562 2286.25 1422.625 2620.117188 1578.09375 C 2840.742188 1611.492188 2944.179688 1322.507812 2847.851562 1200.828125 Z M 2847.851562 1200.828125" fill="none" stroke="#2e2939" stroke-linecap="round" stroke-linejoin="round" stroke-miterlimit="10" stroke-width="40" transform="matrix(.1 0 0 -.1 0 425.2)"/><g id="change1_6"><path d="M 232.199219 305.652344 L 143.792969 305.652344 C 143.792969 305.46875 143.929688 305.199219 143.769531 305.117188 C 122.894531 294.375 143.769531 265.882812 163.925781 267.453125 C 195.335938 281.066406 232.199219 305.652344 232.199219 305.652344" fill="#f4f4f4"/></g><path d="M 2321.992188 1195.476562 L 1437.929688 1195.476562 C 1437.929688 1197.3125 1439.296875 1200.007812 1437.695312 1200.828125 C 1228.945312 1308.25 1437.695312 1593.171875 1639.257812 1577.46875 C 1953.359375 1441.335938 2321.992188 1195.476562 2321.992188 1195.476562 Z M 2321.992188 1195.476562" fill="none" stroke="#2e2939" stroke-linecap="round" stroke-linejoin="round" stroke-miterlimit="10" stroke-width="40" transform="matrix(.1 0 0 -.1 0 425.2)"/><g id="change1_7"><path d="M 237.640625 145.90625 C 237.640625 160.464844 226.21875 172.265625 212.128906 172.265625 C 198.035156 172.265625 186.613281 160.464844 186.613281 145.90625 C 186.613281 131.347656 198.035156 119.546875 212.128906 119.546875 C 226.21875 119.546875 237.640625 131.347656 237.640625 145.90625" fill="#f4f4f4"/></g><path d="M 2376.40625 2792.9375 C 2376.40625 2647.351562 2262.1875 2529.34375 2121.289062 2529.34375 C 1980.351562 2529.34375 1866.132812 2647.351562 1866.132812 2792.9375 C 1866.132812 2938.523438 1980.351562 3056.53125 2121.289062 3056.53125 C 2262.1875 3056.53125 2376.40625 2938.523438 2376.40625 2792.9375 Z M 2376.40625 2792.9375" fill="none" stroke="#2e2939" stroke-linecap="round" stroke-linejoin="round" stroke-miterlimit="10" stroke-width="40" transform="matrix(.1 0 0 -.1 0 425.2)"/></g></svg>